<svg xmlns="http://www.w3.org/2000/svg" width="24" height="25" viewBox="0 0 24 25" fill="none">
  <path d="M10 20.751H14C14 21.851 13.1 22.751 12 22.751C10.9 22.751 10 21.851 10 20.751ZM20 18.101V19.751H4V18.101L6 16.221V11.071C6 8.15098 7.56 5.85098 10 5.09098V4.71098C10 3.29098 11.49 2.21098 12.99 2.95098C13.64 3.27098 14 3.98098 14 4.71098V5.10098C16.44 5.85098 18 8.16098 18 11.081V16.231L20 18.101ZM19 18.521L17 16.641V11.171C17 8.70098 15.81 6.81098 13.87 6.07098C12.61 5.54098 11.23 5.57098 10.03 6.10098C8.15 6.86098 7 8.74098 7 11.171V16.641L5 18.521V18.751H19V18.521Z" fill="#fff"/>
</svg>