<svg width="20" height="17" viewBox="0 0 20 17" fill="none" xmlns="http://www.w3.org/2000/svg">
<path fill-rule="evenodd" clip-rule="evenodd" d="M3.68913 0.765961H5.92094L9.86316 3.35833L13.7524 0.765961H15.9233L19.7878 3.71034V10.7465L9.86423 16.712L0 10.7456V3.71769L3.68913 0.765961ZM4.03995 1.76596L1 4.19827V10.1817L9.86582 15.5442L18.7878 10.1808V4.20561L15.5857 1.76596H14.0551L9.86689 4.55763L5.62161 1.76596H4.03995Z" fill="white"/>
<path fill-rule="evenodd" clip-rule="evenodd" d="M15.7748 5.61948V4.64029H16.7748V5.61948H17.7541V6.61948H16.7748V7.59866H15.7748V6.61948H14.8076V5.61948H15.7748Z" fill="white"/>
<path fill-rule="evenodd" clip-rule="evenodd" d="M12.8285 8.57785V7.59866H13.8285V8.57785H14.8078V9.57785H13.8285V10.557H12.8285V9.57785H11.8613V8.57785H12.8285Z" fill="white"/>
<path fill-rule="evenodd" clip-rule="evenodd" d="M3.88228 6.60695V4.62424H5.88228V6.60695H7.86523V8.60695H5.88228V10.5897H3.88228V8.60695H1.92383V6.60695H3.88228Z" fill="white"/>
</svg>
