<svg width="20" height="20" viewBox="0 0 20 20" fill="none" xmlns="http://www.w3.org/2000/svg">
<path fill-rule="evenodd" clip-rule="evenodd" d="M8.82617 5.20227H9.82617V10.3194L13.4848 13.978L12.7777 14.6851L8.82617 10.7336V5.20227Z" fill="white"/>
<path fill-rule="evenodd" clip-rule="evenodd" d="M9.94727 1.07507C6.15771 1.07507 2.91733 3.43134 1.61335 6.75969H6.12596V7.75969H0.410344V1.31033H1.41034V4.91387C3.14846 2.01539 6.32084 0.0750732 9.94727 0.0750732C15.441 0.0750732 19.8945 4.52862 19.8945 10.0223C19.8945 15.5161 15.441 19.9696 9.94727 19.9696C4.45354 19.9696 0 15.5161 0 10.0223H1C1 14.9638 5.00583 18.9696 9.94727 18.9696C14.8887 18.9696 18.8945 14.9638 18.8945 10.0223C18.8945 5.0809 14.8887 1.07507 9.94727 1.07507Z" fill="white"/>
</svg>
