<svg width="24" height="27" viewBox="0 0 24 27" fill="none" xmlns="http://www.w3.org/2000/svg">
<g filter="url(#filter0_d_1_398)">
<path d="M19.6941 6.77957L12.1933 0.970921C12.0907 0.891535 11.9643 0.848948 11.8345 0.849994C11.7047 0.851041 11.5791 0.895661 11.4777 0.976692L4.21677 6.78511C4.14915 6.83935 4.09457 6.90809 4.05705 6.98624C4.01953 7.06439 4.00004 7.14996 4 7.23665V17.7403C3.99997 17.8163 4.01491 17.8915 4.04396 17.9617C4.07301 18.0318 4.1156 18.0956 4.16931 18.1493C4.22301 18.203 4.28677 18.2456 4.35695 18.2746C4.42712 18.3037 4.50233 18.3186 4.57828 18.3186H8.89448C9.04783 18.3185 9.19488 18.2576 9.30332 18.1492C9.41175 18.0407 9.4727 17.8937 9.47276 17.7403V11.3091H14.4453V17.7403C14.4453 17.8937 14.5062 18.0408 14.6146 18.1492C14.7231 18.2577 14.8702 18.3186 15.0235 18.3186H19.3404C19.4938 18.3185 19.6408 18.2576 19.7493 18.1492C19.8577 18.0407 19.9187 17.8937 19.9187 17.7403V7.23665C19.9188 7.14835 19.8986 7.06122 19.8596 6.98197C19.8207 6.90272 19.764 6.83347 19.6941 6.77957Z" fill="white"/>
</g>
<defs>
<filter id="filter0_d_1_398" x="0" y="0.849976" width="23.9187" height="25.4686" filterUnits="userSpaceOnUse" color-interpolation-filters="sRGB">
<feFlood flood-opacity="0" result="BackgroundImageFix"/>
<feColorMatrix in="SourceAlpha" type="matrix" values="0 0 0 0 0 0 0 0 0 0 0 0 0 0 0 0 0 0 127 0" result="hardAlpha"/>
<feOffset dy="4"/>
<feGaussianBlur stdDeviation="2"/>
<feComposite in2="hardAlpha" operator="out"/>
<feColorMatrix type="matrix" values="0 0 0 0 0 0 0 0 0 0 0 0 0 0 0 0 0 0 0.25 0"/>
<feBlend mode="normal" in2="BackgroundImageFix" result="effect1_dropShadow_1_398"/>
<feBlend mode="normal" in="SourceGraphic" in2="effect1_dropShadow_1_398" result="shape"/>
</filter>
</defs>
</svg>
