<svg width="19" height="18" viewBox="0 0 19 18" fill="none" xmlns="http://www.w3.org/2000/svg">
<path d="M16.5274 7.45344H10.9981L12.9045 2.736C13.0675 2.2453 12.9852 1.70133 12.6825 1.28165C12.3799 0.861964 11.8892 0.610962 11.3718 0.610962H10.0708C9.8311 0.610962 9.60431 0.717496 9.45016 0.901511L3.65688 7.45344H1.61416C0.723951 7.45344 0 8.17739 0 9.0676V16.3313C0 17.2215 0.723951 17.9455 1.61416 17.9455H14.354C14.6824 17.9444 15.0027 17.8437 15.2726 17.6566C15.5425 17.4696 15.7493 17.205 15.8656 16.8979L18.0908 10.965C18.1245 10.8744 18.1418 10.7785 18.1416 10.6818V9.0676C18.1416 8.17739 17.4177 7.45344 16.5274 7.45344ZM1.18531 9.66726C1.18531 9.11497 1.63302 8.66726 2.18531 8.66726H3.15688C3.43302 8.66726 3.65688 8.89112 3.65688 9.16726V16.3979C3.65688 16.674 3.43302 16.8979 3.15688 16.8979H2.18531C1.63302 16.8979 1.18531 16.4502 1.18531 15.8979V9.66726ZM17.1494 10.5069L15.0089 16.2473C14.8631 16.6385 14.4895 16.8979 14.0719 16.8979H5.52777C4.97549 16.8979 4.52777 16.4502 4.52777 15.8979V8.77251C4.52777 8.53387 4.61311 8.3031 4.76838 8.12188L9.99646 2.01984C10.1049 1.89327 10.2693 1.82905 10.4348 1.84861L11.3383 1.95534C11.6696 1.99447 11.8704 2.34077 11.7398 2.64767L9.63052 7.60433C9.5896 7.72565 9.57818 7.85498 9.59722 7.98159C9.61626 8.1082 9.66521 8.22844 9.74001 8.33236C9.81481 8.43627 9.9133 8.52085 10.0273 8.5791C10.1413 8.63734 10.2676 8.66756 10.3956 8.66726H16.6494C16.9255 8.66726 17.1494 8.89112 17.1494 9.16726V10.5069Z" fill="white"/>
</svg>
