<svg width="18" height="17" viewBox="0 0 18 17" fill="none" xmlns="http://www.w3.org/2000/svg">
<path fill-rule="evenodd" clip-rule="evenodd" d="M8.17676 0.0436096H15.1576V4.01695H9.17676V12.0668C9.17676 14.2565 7.40164 16.0316 5.21191 16.0316C3.02219 16.0316 1.24707 14.2565 1.24707 12.0668C1.24707 9.87706 3.02219 8.10194 5.21191 8.10194C6.39134 8.10194 7.45049 8.61692 8.17676 9.43429V0.0436096ZM8.17676 12.0668C8.17676 10.4293 6.84935 9.10194 5.21191 9.10194C3.57448 9.10194 2.24707 10.4293 2.24707 12.0668C2.24707 13.7042 3.57448 15.0316 5.21191 15.0316C6.84935 15.0316 8.17676 13.7042 8.17676 12.0668ZM9.17676 3.01695H14.1576V1.04361H9.17676V3.01695Z" fill="white"/>
</svg>
