<svg xmlns="http://www.w3.org/2000/svg" width="19" height="19" viewBox="0 0 19 19" fill="none">
  <path fill-rule="evenodd" clip-rule="evenodd" d="M7.51562 1.67017C4.30008 1.67017 1.69336 4.27688 1.69336 7.49243C1.69336 10.708 4.30008 13.3147 7.51562 13.3147C9.12965 13.3147 10.5895 12.6586 11.6446 11.5973C12.6917 10.5441 13.3379 9.09423 13.3379 7.49243C13.3379 4.27688 10.7312 1.67017 7.51562 1.67017ZM0.693359 7.49243C0.693359 3.7246 3.74779 0.670166 7.51562 0.670166C11.2835 0.670166 14.3379 3.7246 14.3379 7.49243C14.3379 9.18952 13.7177 10.7425 12.6924 11.936L18.5273 17.7709L17.8202 18.478L11.9872 12.645C10.7901 13.6847 9.22606 14.3147 7.51562 14.3147C3.74779 14.3147 0.693359 11.2603 0.693359 7.49243Z" fill="white"/>
</svg>