<svg width="18" height="22" viewBox="0 0 18 22" fill="none" xmlns="http://www.w3.org/2000/svg">
<path d="M2.80722 6.54056C1.0787 7.53824 0.486903 9.74783 1.48495 11.4759C2.23154 12.7697 3.65782 13.4266 5.05297 13.2564L3.28475 14.6013C1.55624 15.599 0.964442 17.8086 1.96249 19.5367C2.95956 21.2647 5.16952 21.8567 6.89804 20.859L15.1031 16.1217C16.8307 15.1241 17.4225 12.9145 16.4254 11.1864C15.6228 9.79702 14.0378 9.14197 12.5489 9.45716L14.6256 8.06094C16.3531 7.06326 16.9449 4.85367 15.9478 3.12564C14.9498 1.39761 12.7408 0.805573 11.0123 1.80325L2.80722 6.54056Z" stroke="white" stroke-linejoin="round"/>
</svg>
