<svg width="16" height="22" viewBox="0 0 16 22" fill="none" xmlns="http://www.w3.org/2000/svg">
<path fill-rule="evenodd" clip-rule="evenodd" d="M10.0812 0.987309C10.2461 1.13119 10.2983 1.36556 10.21 1.56577C9.79357 2.50998 9.40788 5.06074 11.4589 7.32404C12.1215 8.05521 12.7174 8.63627 13.2487 9.15438L13.2901 9.19475C13.8264 9.71783 14.311 10.192 14.7086 10.6843C15.5371 11.7101 15.9762 12.801 15.9762 14.6233C15.9762 16.5728 14.6826 18.1825 13.1558 19.2749C11.6262 20.3692 9.73808 21.0376 8.3219 21.0376C6.91505 21.0376 4.86052 20.3996 3.15619 19.1928C1.44289 17.9797 0 16.1285 0 13.6694C0 9.98139 1.44304 8.26012 2.40968 7.86475C2.5478 7.80826 2.70393 7.81641 2.83541 7.88698C2.9669 7.95754 3.05999 8.08315 3.08926 8.22948C3.21071 8.83672 3.471 9.75039 3.84799 10.5088C4.03678 10.8887 4.24309 11.2054 4.45731 11.4248C4.53487 11.5042 4.60863 11.5661 4.67854 11.6132C4.66986 11.5866 4.66065 11.5588 4.65091 11.5297C4.63238 11.4743 4.61236 11.4155 4.59125 11.3536C4.3997 10.7913 4.11838 9.96557 4.04331 8.98578C3.95887 7.88368 4.13299 6.5882 4.93937 5.1998C5.74164 3.81849 7.15219 2.37511 9.49069 0.938027C9.67712 0.823461 9.91639 0.843428 10.0812 0.987309ZM5.0319 11.7396C5.03197 11.7397 5.03033 11.7398 5.02675 11.7399C5.03003 11.7395 5.03183 11.7395 5.0319 11.7396ZM5.50279 12.5948C5.31686 12.7335 5.103 12.7464 4.95438 12.7377C4.46128 12.7087 4.05618 12.4453 3.74186 12.1235C3.42705 11.8011 3.16595 11.3833 2.95251 10.9539C2.66599 10.3775 2.44419 9.73654 2.28904 9.17638C1.72953 9.7766 1 11.1126 1 13.6694C1 15.6937 2.18028 17.2765 3.73405 18.3767C5.29677 19.4832 7.1532 20.0376 8.3219 20.0376C9.48127 20.0376 11.1703 19.4658 12.574 18.4616C13.9804 17.4553 14.9762 16.108 14.9762 14.6233C14.9762 13.0116 14.6045 12.147 13.9307 11.3126C13.5771 10.8749 13.1376 10.4429 12.5919 9.91066L12.5464 9.86628C12.0163 9.34937 11.4015 8.7499 10.7179 7.99555C8.98565 6.084 8.73762 3.97354 8.93866 2.49869C7.35154 3.6237 6.38088 4.70897 5.8041 5.70204C5.11114 6.89516 4.96952 7.98444 5.04039 8.90939C5.10527 9.75617 5.34638 10.4665 5.5384 11.0323C5.55938 11.0941 5.57977 11.1542 5.59928 11.2125C5.64776 11.3575 5.6938 11.5011 5.72636 11.6319C5.75731 11.7561 5.78663 11.9079 5.77773 12.0589C5.76825 12.2199 5.70945 12.4407 5.50279 12.5948Z" fill="white"/>
<path d="M11.716 14.4068C11.716 12.4105 9.62562 10.7165 8.46838 9.95387C8.38741 9.90051 8.28641 9.98489 8.31913 10.0762C8.61856 10.9116 9.07004 12.5844 8.91534 14.0695C8.75658 15.5937 6.99597 16.0342 6.02385 16.1907C5.9311 16.2057 5.90646 16.3269 5.98872 16.3723C8.23349 17.6106 11.716 17.6743 11.716 14.4068Z" fill="white"/>
</svg>
