<svg width="20" height="21" viewBox="0 0 20 21" fill="none" xmlns="http://www.w3.org/2000/svg">
<path fill-rule="evenodd" clip-rule="evenodd" d="M8.64648 5.79126H9.64648V11.0508L13.0576 14.4619L12.3504 15.169L8.64648 11.465V5.79126Z" fill="white"/>
<path fill-rule="evenodd" clip-rule="evenodd" d="M9.92554 1.75989C4.9961 1.75989 1 5.75599 1 10.6854C1 15.6149 4.9961 19.611 9.92554 19.611C14.855 19.611 18.8511 15.6149 18.8511 10.6854C18.8511 5.75599 14.855 1.75989 9.92554 1.75989ZM0 10.6854C0 5.2037 4.44381 0.759888 9.92554 0.759888C15.4073 0.759888 19.8511 5.2037 19.8511 10.6854C19.8511 16.1671 15.4073 20.611 9.92554 20.611C4.44381 20.611 0 16.1671 0 10.6854Z" fill="white"/>
</svg>
